<?xml version="1.0" standalone="no"?>
<!DOCTYPE svg PUBLIC "-//W3C//DTD SVG 20010904//EN"
 "http://www.w3.org/TR/2001/REC-SVG-20010904/DTD/svg10.dtd">
<svg version="1.0" xmlns="http://www.w3.org/2000/svg"
 width="1080.000000pt" height="1080.000000pt" viewBox="0 0 1080.000000 1080.000000"
 preserveAspectRatio="xMidYMid meet">

<g transform="translate(0.000000,1080.000000) scale(0.100000,-0.100000)"
fill="#000000" stroke="none">
<path d="M4975 8573 c-27 -8 -69 -24 -92 -34 -24 -11 -47 -19 -52 -19 -5 0
-26 -9 -48 -19 -21 -11 -110 -49 -198 -86 -88 -37 -171 -73 -185 -80 -28 -15
-33 -44 -10 -55 19 -9 55 -27 78 -40 23 -13 966 -476 1022 -502 25 -12 53 -25
63 -30 9 -4 25 -12 35 -16 9 -5 28 -15 42 -22 25 -14 177 -88 330 -163 113
-55 169 -93 181 -124 11 -29 14 -668 4 -695 -10 -27 -370 -200 -419 -202 l-31
-1 -5 340 c-3 187 -9 349 -15 360 -21 46 -56 65 -550 308 -38 19 -97 48 -130
65 -33 17 -285 142 -560 278 -431 214 -506 248 -546 249 -25 0 -57 -5 -70 -12
-13 -6 -58 -26 -99 -43 -41 -18 -107 -47 -146 -66 -39 -19 -74 -34 -77 -34 -3
0 -67 -29 -142 -65 -75 -36 -140 -65 -144 -65 -24 0 -130 -65 -158 -96 -26
-30 -33 -46 -37 -97 -3 -34 -8 -498 -11 -1032 -6 -1050 -6 -1031 48 -1084 14
-14 54 -40 89 -58 35 -17 463 -231 953 -475 l890 -443 75 1 75 0 265 136 c146
75 357 183 470 240 113 57 215 110 228 116 12 7 31 16 42 22 32 16 693 352
723 368 16 8 31 21 34 29 3 8 -5 49 -17 91 -82 274 -63 529 57 812 27 62 42
90 102 192 22 37 22 40 24 575 2 491 1 541 -15 569 -23 42 -63 74 -129 106
-76 36 -203 95 -274 128 -33 15 -99 46 -148 69 -48 22 -89 41 -91 41 -3 0 -58
25 -123 56 -65 31 -147 70 -183 86 -36 16 -92 42 -125 58 -33 15 -96 44 -140
65 -44 20 -117 54 -163 76 -45 21 -84 39 -87 39 -2 0 -65 29 -139 65 -74 36
-139 65 -145 65 -6 0 -25 8 -43 18 -92 51 -193 63 -283 35z"/>
<path d="M7845 6694 c-63 -13 -154 -38 -180 -49 -84 -36 -116 -53 -180 -96
-72 -48 -225 -200 -225 -224 0 -7 -4 -15 -8 -17 -17 -7 -70 -116 -95 -193 -37
-115 -51 -210 -44 -301 15 -183 45 -284 140 -457 15 -29 250 -377 378 -562 38
-55 99 -143 134 -195 164 -240 167 -245 205 -248 28 -2 41 3 61 25 30 32 279
400 279 412 0 4 9 16 20 26 11 10 20 21 20 26 0 4 29 50 65 103 36 53 65 100
65 106 0 5 4 10 9 10 5 0 16 15 25 34 8 18 22 39 31 46 8 7 15 16 15 21 0 5
20 40 45 79 45 70 105 184 143 270 68 156 87 390 43 545 -42 151 -118 282
-225 389 -123 123 -272 202 -456 242 -60 13 -218 17 -265 8z m188 -444 c138
-22 243 -104 306 -239 23 -50 26 -68 26 -171 0 -109 -2 -119 -32 -183 -55
-116 -146 -195 -259 -226 -50 -13 -184 -15 -216 -2 -13 5 -35 12 -49 15 -43 9
-135 85 -177 145 -127 180 -104 432 52 569 98 86 209 115 349 92z"/>
<path d="M2745 5380 c-3 -5 -15 -10 -26 -10 -10 0 -19 -4 -19 -10 0 -5 -8 -10
-18 -10 -22 0 -72 -22 -72 -32 0 -5 -11 -8 -25 -8 -14 0 -25 -4 -25 -10 0 -5
-9 -10 -20 -10 -11 0 -20 -3 -20 -7 0 -5 -26 -21 -58 -37 -63 -33 -166 -100
-196 -128 -11 -10 -24 -18 -28 -18 -10 0 -148 -144 -162 -169 -5 -9 -13 -18
-16 -21 -15 -10 -50 -81 -50 -100 0 -10 -4 -22 -10 -25 -13 -8 -13 -182 0
-190 6 -3 10 -17 10 -31 0 -13 5 -24 10 -24 6 0 10 -9 10 -19 0 -11 3 -21 8
-23 4 -1 25 -25 47 -53 52 -65 102 -115 115 -115 5 0 10 -4 10 -10 0 -5 7 -10
15 -10 8 0 15 -4 15 -9 0 -5 16 -16 35 -25 19 -9 37 -20 40 -25 2 -5 22 -18
42 -29 21 -10 55 -29 76 -41 21 -11 44 -21 52 -21 8 0 15 -4 15 -10 0 -5 7
-10 15 -10 8 0 24 -4 35 -10 11 -5 29 -14 40 -20 11 -5 27 -10 35 -10 8 0 24
-4 35 -10 11 -5 29 -14 40 -20 11 -5 28 -10 38 -10 10 0 22 -3 25 -7 13 -12
102 -40 115 -35 7 2 22 -4 32 -13 10 -9 27 -15 37 -14 10 2 27 -2 38 -7 11 -6
36 -11 55 -13 19 -1 37 -6 38 -11 2 -6 19 -10 37 -10 19 0 37 -4 40 -10 3 -5
25 -10 49 -10 23 0 46 -4 52 -9 9 -9 56 -17 149 -27 28 -3 59 -9 70 -14 21 -9
81 -18 180 -26 33 -3 69 -9 80 -13 25 -11 170 -32 255 -37 36 -2 72 -7 80 -11
15 -7 92 -15 328 -33 67 -6 177 -14 245 -20 67 -5 172 -12 232 -15 61 -3 119
-10 130 -15 11 -5 40 -11 65 -14 81 -9 107 -17 139 -46 26 -24 31 -36 31 -72
0 -38 -6 -49 -44 -88 -47 -49 -83 -80 -92 -80 -2 0 -14 -9 -26 -20 -12 -11
-28 -20 -35 -20 -7 0 -13 -4 -13 -10 0 -5 -5 -10 -10 -10 -12 0 -94 -52 -98
-62 -2 -5 -10 -8 -17 -8 -11 0 -62 -24 -140 -68 -11 -6 -27 -13 -35 -16 -8 -3
-42 -21 -75 -40 -81 -46 -279 -146 -288 -146 -4 0 -17 -9 -29 -20 -12 -11 -27
-20 -34 -20 -6 0 -14 -7 -18 -15 -3 -8 -12 -15 -20 -15 -8 0 -26 -10 -40 -22
-40 -37 -66 -58 -71 -58 -9 0 -75 -69 -75 -78 0 -4 -8 -17 -18 -28 -31 -33
-46 -87 -46 -159 0 -65 19 -135 36 -135 5 0 8 -6 8 -13 0 -17 76 -88 115 -107
17 -8 42 -22 57 -32 14 -10 36 -18 47 -18 12 0 24 -7 27 -15 4 -8 17 -15 29
-15 13 0 27 -4 30 -10 3 -5 22 -10 41 -10 19 0 34 -4 34 -10 0 -5 20 -10 44
-10 25 0 48 -4 51 -10 3 -5 37 -10 74 -10 37 0 72 -5 77 -10 19 -19 708 1 728
21 6 5 37 9 71 9 34 0 66 5 72 11 6 6 39 12 74 14 83 4 170 18 189 30 8 5 40
13 70 17 98 13 130 20 136 29 3 5 29 9 59 9 30 0 57 4 60 10 3 6 24 10 45 10
21 0 42 5 45 10 3 6 24 10 46 10 21 0 39 5 39 10 0 6 18 10 40 10 22 0 40 5
40 10 0 6 15 10 34 10 19 0 38 5 41 10 3 5 19 10 35 10 16 0 31 4 35 9 3 6 26
13 50 17 25 3 48 10 51 15 3 5 10 7 15 3 5 -3 21 1 34 10 13 9 38 16 54 16 16
0 33 4 36 10 3 6 17 10 31 10 13 0 24 5 24 10 0 6 15 10 34 10 19 0 38 5 41
10 3 6 17 10 31 10 13 0 24 5 24 10 0 6 13 10 29 10 17 0 33 5 36 10 3 5 17
10 31 10 13 0 24 5 24 10 0 6 9 10 20 10 11 0 28 4 38 9 39 21 91 41 105 41 9
0 19 5 22 10 3 6 15 10 26 10 10 0 19 5 19 10 0 6 11 10 24 10 14 0 28 5 31
10 3 6 15 10 26 10 10 0 19 5 19 10 0 6 14 10 30 10 17 0 30 5 30 10 0 6 9 10
19 10 11 0 23 5 26 10 3 6 15 10 26 10 10 0 19 5 19 10 0 6 6 10 14 10 8 0 45
15 83 33 37 19 106 53 153 76 47 22 91 41 98 41 6 0 12 5 12 10 0 6 9 10 20
10 11 0 20 5 20 10 0 6 7 10 15 10 9 0 25 8 36 19 11 10 37 27 59 37 22 10 40
22 40 27 0 4 9 7 20 7 11 0 20 4 20 8 0 5 12 15 28 23 15 8 36 22 46 32 11 9
25 17 30 17 6 0 27 15 47 33 20 17 55 48 79 67 63 51 177 167 197 201 10 16
21 29 25 29 4 0 8 6 8 14 0 8 3 16 8 18 11 5 52 84 52 102 0 9 4 16 8 16 12 0
37 80 34 105 -1 10 4 36 13 57 13 34 13 43 0 74 -8 19 -12 41 -8 50 6 15 4 21
-36 104 -31 67 -53 100 -86 136 -16 18 -42 45 -56 61 -51 56 -109 103 -127
103 -20 0 -38 -18 -96 -99 -31 -44 -36 -58 -27 -70 6 -9 14 -23 18 -31 3 -8
15 -27 25 -42 14 -21 18 -45 18 -116 0 -50 -4 -94 -10 -97 -5 -3 -10 -15 -10
-26 0 -10 -3 -19 -8 -19 -4 0 -13 -12 -20 -27 -19 -43 -188 -213 -211 -213 -6
0 -11 -4 -11 -10 0 -5 -7 -10 -15 -10 -8 0 -15 -4 -15 -10 0 -5 -6 -10 -13
-10 -7 0 -22 -8 -33 -19 -36 -33 -219 -131 -246 -131 -10 0 -18 -4 -18 -10 0
-5 -11 -10 -25 -10 -14 0 -25 -4 -25 -10 0 -5 -9 -10 -19 -10 -11 0 -23 -4
-26 -10 -3 -5 -17 -10 -30 -10 -12 0 -26 -7 -29 -16 -3 -9 -12 -14 -20 -11 -7
3 -32 -6 -56 -19 -23 -13 -50 -24 -60 -24 -11 0 -22 -4 -25 -10 -3 -5 -17 -10
-31 -10 -13 0 -24 -4 -24 -10 0 -5 -13 -10 -29 -10 -17 0 -33 -4 -36 -10 -3
-5 -17 -10 -30 -10 -13 0 -27 -4 -30 -10 -3 -5 -19 -10 -36 -10 -16 0 -29 -4
-29 -10 0 -5 -11 -10 -25 -10 -14 0 -33 -4 -43 -9 -35 -19 -113 -43 -119 -37
-4 3 -13 0 -22 -8 -9 -7 -29 -16 -46 -19 -16 -3 -48 -11 -70 -17 -44 -13 -112
-28 -162 -37 -18 -3 -33 -9 -33 -14 0 -5 -18 -9 -39 -9 -22 0 -43 -4 -46 -10
-3 -5 -21 -10 -40 -10 -19 0 -37 -4 -40 -10 -3 -5 -26 -10 -50 -10 -24 0 -47
-4 -50 -10 -3 -5 -23 -10 -44 -10 -20 0 -41 -4 -47 -10 -5 -5 -41 -14 -79 -20
-39 -6 -97 -16 -130 -21 -69 -13 -347 -23 -379 -15 -11 3 -33 16 -48 29 -23
20 -28 33 -28 71 0 51 2 54 99 155 35 36 84 91 110 121 25 30 53 62 62 70 9 8
34 53 57 100 37 77 41 93 43 175 2 88 -12 165 -32 165 -5 0 -9 8 -9 18 0 21
-119 152 -138 152 -7 0 -12 3 -12 8 0 4 -10 12 -23 18 -12 6 -42 21 -67 34
-25 13 -54 26 -65 30 -11 4 -33 13 -48 19 -15 6 -38 11 -50 11 -13 0 -33 7
-45 16 -13 9 -33 14 -44 11 -12 -3 -34 1 -49 9 -15 7 -46 14 -68 14 -22 0 -43
5 -46 10 -3 6 -35 10 -70 10 -35 0 -67 5 -70 10 -3 6 -43 10 -89 10 -45 0 -86
4 -92 9 -5 6 -56 12 -114 15 -116 6 -301 20 -485 36 -66 5 -167 14 -225 19
-58 5 -127 14 -154 20 -28 6 -57 9 -66 6 -8 -3 -51 2 -94 10 -44 9 -87 13 -96
10 -10 -3 -30 0 -46 6 -30 13 -112 26 -219 35 -33 3 -64 10 -69 15 -6 5 -31 9
-57 9 -26 0 -51 5 -54 10 -3 6 -26 10 -50 10 -24 0 -47 5 -50 10 -3 6 -24 10
-45 10 -21 0 -42 5 -45 10 -3 6 -22 10 -41 10 -19 0 -42 4 -52 9 -9 5 -37 14
-62 21 -42 11 -91 30 -132 51 -10 5 -24 9 -33 9 -8 0 -30 9 -50 20 -20 11 -42
20 -50 20 -8 0 -15 5 -15 10 0 6 -7 10 -15 10 -8 0 -15 5 -15 10 0 6 -7 10
-15 10 -22 0 -119 100 -140 145 -23 48 -24 121 -2 167 19 41 133 157 174 178
15 8 30 17 33 20 7 7 49 31 102 58 27 13 50 28 54 33 3 5 13 9 22 9 9 0 25 7
35 14 16 12 14 16 -27 47 -24 19 -59 55 -77 81 -33 46 -69 62 -84 38z"/>
</g>
</svg>
